<svg width="143" height="116" viewBox="0 0 143 116" fill="none" xmlns="http://www.w3.org/2000/svg">
<path fill-rule="evenodd" clip-rule="evenodd" d="M135.619 93.3881C135.642 92.4307 136.437 91.6785 137.368 91.7013C138.322 91.7241 139.071 92.5219 139.049 93.4793C138.844 101.252 137.663 108.82 135.619 116H132.031C134.166 108.797 135.415 101.229 135.619 93.3881ZM55.8193 28.8575C55.8193 27.7406 56.228 26.8744 57.091 26.2134C57.9312 25.5752 58.9304 25.2332 60.0659 25.2332C61.2014 25.2332 62.1324 25.5752 62.8591 26.259C63.6085 26.9428 63.9719 27.8546 63.9719 28.9715C63.9719 30.02 63.5631 30.8634 62.7229 31.5017C61.9053 32.1399 60.9289 32.459 59.8388 32.459C58.7034 32.459 57.7496 32.1399 56.9774 31.5017C56.2053 30.8634 55.8193 29.9745 55.8193 28.8575ZM56.9774 57.5099L56.8412 39.5025C56.8412 37.3598 56.1372 36.2885 54.6838 36.2885V35.2855L64.3352 34.7385V50.079L67.2874 47.2069C68.2412 46.3407 68.7862 45.8165 68.9225 45.7025C69.7855 44.8363 70.2169 44.2665 70.2169 44.0157C70.2169 43.651 70.0353 43.4003 69.6719 43.2635C69.3086 43.1267 68.9225 43.0356 68.491 43.0356V42.0326H79.6413V43.0356C78.3014 43.0356 76.9843 43.3319 75.6671 43.9245C74.35 44.5172 73.1237 45.2922 72.011 46.2496L71.2843 46.8878C72.3289 48.2327 73.1237 49.304 73.6914 50.1018C74.4408 51.1959 75.1221 52.3812 75.758 53.5893L77.2568 56.5298C78.1197 58.2165 78.5966 59.1055 78.6875 59.2195C79.4142 60.2908 80.1863 60.8379 81.0038 60.8379V61.8408H67.6508V60.8379C68.1731 60.8379 68.65 60.7011 69.036 60.4276C69.4221 60.1541 69.6038 59.7666 69.6038 59.2195C69.6038 58.2849 69.1042 56.9629 68.1277 55.2533C67.3556 53.9084 66.4926 52.7003 65.5615 51.5834L64.3352 52.7687C64.3352 62.3651 64.3352 71.9843 64.3352 81.6035C64.3352 83.7689 65.2209 85.091 66.7197 85.091V86.0939H54.8428V85.091C56.2735 85.091 57.0229 83.8601 57.0229 81.6946C57.0229 73.5799 56.9774 65.6019 56.9774 57.5099ZM130.941 0.113971C134.098 0.113971 136.959 1.41324 139.026 3.48752C141.092 5.5618 142.364 8.41108 142.364 11.5795C142.364 14.7479 141.092 17.62 139.026 19.6942C136.959 21.7685 134.098 23.045 130.941 23.045C127.785 23.045 124.923 21.7685 122.857 19.6942C120.79 17.62 119.519 14.7479 119.519 11.5795C119.519 8.41108 120.79 5.5618 122.857 3.48752C124.923 1.41324 127.785 0.113971 130.941 0.113971ZM136.573 5.92651C135.143 4.49047 133.144 3.60149 130.941 3.60149C128.739 3.60149 126.74 4.49047 125.31 5.92651C123.879 7.38534 122.97 9.36844 122.97 11.5795C122.97 13.7905 123.879 15.7964 125.31 17.2325C126.74 18.6913 128.739 19.5803 130.941 19.5803C133.144 19.5803 135.143 18.6913 136.573 17.2325C138.004 15.7964 138.912 13.7905 138.912 11.5795C138.912 9.36844 138.004 7.38534 136.573 5.92651ZM30.0216 35.4223L30.0443 36.4252C29.2268 36.4252 28.659 36.7216 28.3411 37.3142C28.0232 37.9296 27.8642 38.9554 27.8642 40.437V56.4158V56.9629C27.8642 57.5783 28.0005 58.0798 28.2957 58.4217C28.7499 58.9232 29.5674 59.1739 30.771 59.1739C32.9511 59.1739 34.9949 58.3305 36.9025 56.6209C38.5603 55.0937 39.8547 53.2018 40.7404 50.9908L41.5352 51.2643L38.2196 62.4335C38.1061 62.2511 37.9017 62.1144 37.6065 62.0004C37.3113 61.8864 36.8571 61.8408 36.2439 61.8408H35.5626H17.4634V60.8379C18.2809 60.8379 18.8487 60.5188 19.1666 59.9261C19.4845 59.3107 19.6435 58.2849 19.6435 56.8033V40.437C19.6435 39.0238 19.4845 37.998 19.1666 37.3598C18.8487 36.7444 18.2809 36.4252 17.4634 36.4252V35.4223H30.0216ZM41.8531 42.2834L51.4818 41.7135V57.5783C51.4818 59.7438 52.2312 60.8379 53.73 60.8379V61.8408H41.8531V60.8379C43.2838 60.8379 44.0105 59.7438 44.0105 57.5783V46.5003C44.0105 44.3576 43.2838 43.2863 41.8531 43.2863V42.2834ZM43.579 36.0149C43.579 34.9208 43.9878 34.0546 44.828 33.3936C45.691 32.7326 46.6675 32.4134 47.8256 32.4134C48.9611 32.4134 49.8922 32.7554 50.6189 33.4392C51.3683 34.1002 51.7316 35.012 51.7316 36.1289C51.7316 37.1774 51.3229 38.0208 50.4826 38.6591C49.6424 39.3201 48.6886 39.6392 47.5985 39.6392C46.4631 39.6392 45.5093 39.3201 44.7372 38.6591C43.9651 38.0208 43.579 37.1319 43.579 36.0149ZM89.1564 52.4724C89.3835 54.3415 89.974 55.8687 90.9277 57.0084C92.0178 58.3533 93.4485 59.0143 95.2425 59.0143C96.8094 59.0143 98.2174 58.5813 99.4664 57.7151C100.693 56.8489 101.624 55.6636 102.237 54.2048L103.077 54.5239L100.602 62.2283C100.443 62.1144 100.307 62.0232 100.17 61.9548C99.8752 61.7952 99.58 61.7041 99.3302 61.7041L98.4445 61.8408C97.627 61.9548 96.764 62.0916 95.8784 62.1827C94.9927 62.2967 94.1525 62.3423 93.3576 62.3423C91.8134 62.3423 90.3146 62.16 88.8839 61.7952C87.4532 61.4077 86.1588 60.8151 85.0461 59.9945C83.7289 59.0143 82.7297 57.829 82.003 56.4158C81.2763 55.0026 80.9357 53.4525 80.9357 51.7886C80.9357 48.5746 82.1393 46.0216 84.5692 44.1297C86.7719 42.3973 89.5425 41.5084 92.8807 41.5084C95.6513 41.5084 97.9676 42.1694 99.8525 43.4459C101.874 44.8591 103.1 46.8878 103.554 49.5547L89.1564 52.4724ZM95.5604 48.7113V48.0275C95.5604 47.0929 95.2652 46.2724 94.6521 45.6113C94.0389 44.9503 93.2668 44.6084 92.3584 44.6084C91.1548 44.6084 90.2465 45.2466 89.6333 46.5003C89.1564 47.4577 88.9293 48.643 88.9293 50.0334L95.5604 48.7113ZM18.7578 70.7762C18.7578 68.6335 18.0311 67.5622 16.6004 67.5622V66.5592L25.1164 65.9894C25.4116 66.4681 25.6387 67.1291 25.8204 67.9269C26.0021 68.7475 26.1383 69.3857 26.2292 69.796C27.3419 68.6563 28.5001 67.7217 29.6582 67.0379C31.0889 66.1945 32.4969 65.7842 33.8367 65.7842C36.63 65.7842 38.3786 67.1291 39.0599 69.796C40.0591 68.6335 41.2172 67.6534 42.5571 66.924C43.8742 66.1717 45.2595 65.7842 46.7129 65.7842C48.4161 65.7842 49.7786 66.3769 50.7778 67.5622C51.2547 68.1093 51.5727 68.8387 51.7089 69.6821C51.8452 70.5482 51.9133 71.5284 51.9133 72.6225V81.877C51.9133 84.0196 52.64 85.091 54.1388 85.091V86.0939H42.1483V85.091C43.6698 85.091 44.4192 84.0196 44.4192 81.877V74.1041V73.5343C44.4192 72.5313 44.3511 71.7791 44.1922 71.3232C43.8969 70.5254 43.3519 70.1152 42.5571 70.1152C41.9894 70.1152 41.467 70.3203 40.9902 70.7078C40.5133 71.0953 40.1045 71.5512 39.832 72.0983C39.4913 72.7821 39.3097 73.5343 39.1961 74.3321C39.1053 75.1527 39.0599 76.0872 39.0599 77.1586V81.877C39.0599 84.0196 39.8093 85.091 41.2627 85.091V86.0939H29.2722V85.091C30.8164 85.091 31.5885 84.0196 31.5885 81.877V74.2181V73.3063C31.5885 72.3718 31.4977 71.6652 31.316 71.2093C31.0208 70.4799 30.4758 70.1152 29.6582 70.1152C29.0905 70.1152 28.5228 70.3431 27.9778 70.7762C27.4555 71.1865 27.0694 71.688 26.8196 72.235C26.5925 72.7821 26.4335 73.3975 26.3427 74.0814C26.2746 74.7652 26.2292 75.4262 26.2292 76.0645V76.5887V81.877C26.2292 84.0196 26.9786 85.091 28.5001 85.091V86.0939H16.6004V85.091C18.0311 85.091 18.7578 84.0196 18.7578 81.877V70.7762ZM70.7847 70.7762C70.7847 68.6335 70.058 67.5622 68.6273 67.5622V66.5592L77.1432 65.9894C77.4385 66.4681 77.6883 67.1291 77.8699 67.9269C78.0516 68.7475 78.1879 69.3857 78.256 69.796C79.2779 68.6107 80.4361 67.6534 81.7305 66.9467C83.1839 66.1945 84.6827 65.7842 86.2269 65.7842C88.2481 65.7842 89.6787 66.4225 90.4963 67.6762C91.223 68.7931 91.5863 70.6166 91.5863 73.1012V81.8542C91.5863 84.0196 92.313 85.091 93.7891 85.091V86.0939H81.8213V85.091C83.3429 85.091 84.0923 84.0196 84.0923 81.8542V74.1497V73.5799C84.0923 72.5313 84.0014 71.7791 83.8652 71.3232C83.5927 70.5254 83.0476 70.1152 82.2301 70.1152C81.5034 70.1152 80.8448 70.3431 80.2771 70.7534C79.7094 71.1637 79.2779 71.6652 79.0281 72.235C78.7556 72.8049 78.5512 73.5343 78.4377 74.3777C78.3241 75.2439 78.256 76.0417 78.256 76.7483V81.8542C78.256 84.0196 79.0508 85.091 80.6632 85.091V86.0939H68.6273V85.091C70.058 85.091 70.7847 84.0196 70.7847 81.8542V70.7762ZM111.139 86.2307H107.46C105.552 86.2307 104.099 86.1623 103.168 86.0255C101.578 85.7976 100.216 85.2961 99.1485 84.5667C97.8995 83.7689 96.9911 82.652 96.378 81.2843C95.7648 79.9167 95.4469 78.4578 95.4469 76.8623C95.4469 73.238 96.6732 70.4343 99.1031 68.474C101.329 66.696 104.303 65.5791 107.982 65.7842L110.685 65.9438V65.146V64.3026C110.685 63.0489 110.571 62.1827 110.344 61.7041C109.958 60.9519 109.209 60.5644 108.05 60.5644V59.5614L118.179 59.0143V81.8542C118.179 84.0196 118.906 85.091 120.382 85.091V86.0939L111.139 86.2307ZM109.504 68.6107C108.596 68.5423 107.733 68.8615 106.938 69.3629C106.143 69.8872 105.462 70.571 104.939 71.3916C103.963 72.896 103.463 74.6284 103.463 76.5887C103.463 78.3667 103.849 79.9395 104.621 81.2615C105.552 82.8799 106.847 83.7005 108.505 83.7005C109.436 83.7005 110.049 83.3814 110.367 82.766C110.594 82.3557 110.685 81.649 110.685 80.6233V79.7115V68.6791L109.504 68.6107ZM140.616 71.7791L139.843 71.8475C139.276 70.7078 138.458 69.8188 137.482 69.2262C136.482 68.6335 135.302 68.3144 133.962 68.3144C133.235 68.3144 132.576 68.4056 132.009 68.6107C131.168 68.8843 130.737 69.3401 130.737 69.9328C130.737 70.4571 131.1 70.8902 131.85 71.2093C132.168 71.346 132.781 71.5284 133.644 71.7791L137.005 72.6909C137.777 72.896 138.504 73.1012 139.185 73.3291C139.866 73.5799 140.434 73.899 140.933 74.2637C141.592 74.7196 142.114 75.2894 142.478 75.9961C142.841 76.7255 143 77.5005 143 78.3667C143 79.6204 142.682 80.8057 142.046 81.9226C141.41 83.0395 140.57 83.9513 139.503 84.6123C138.458 85.2733 137.277 85.7976 135.983 86.1167C134.666 86.4586 133.371 86.6182 132.1 86.6182C130.76 86.6182 129.215 86.4586 127.49 86.0939C126.99 86.0027 126.513 85.8888 126.104 85.8204C125.696 85.752 125.355 85.7064 125.06 85.7064C124.333 85.7064 123.743 85.9572 123.243 86.4586L122.698 78.5262L123.538 78.3667C123.992 80.1218 124.81 81.4895 125.991 82.424C127.172 83.3814 128.67 83.8601 130.442 83.8601C131.691 83.8601 132.735 83.6549 133.576 83.2446C134.734 82.6976 135.324 81.877 135.324 80.8057C135.324 80.1674 134.87 79.6432 133.962 79.2784C133.667 79.1417 132.894 78.9137 131.736 78.6402L128.807 77.9564C127.058 77.5461 125.696 76.9762 124.764 76.3152C123.493 75.3806 122.857 74.1269 122.857 72.5769C122.857 71.46 123.175 70.4115 123.765 69.4769C124.378 68.5423 125.196 67.8129 126.172 67.2659C127.149 66.7416 128.239 66.3541 129.42 66.1262C130.578 65.8982 131.782 65.6931 132.963 65.7842L136.46 66.0806C136.891 66.1034 137.3 66.2173 137.686 66.2629C138.095 66.3313 138.504 66.3541 138.935 66.3541C139.162 66.3541 139.412 66.3085 139.639 66.2401C139.866 66.1489 140.093 66.035 140.32 65.921L140.616 71.7791ZM0 14.0869C14.0116 5.1743 30.6347 0 48.4615 0C67.242 0 84.7281 5.76695 99.2166 15.6141C114.137 25.7575 125.877 40.2319 132.645 57.2364C133.008 58.1254 132.576 59.1283 131.691 59.493C130.805 59.8349 129.806 59.4018 129.443 58.5357C122.925 42.1466 111.616 28.2193 97.2863 18.4634C83.3656 9.00373 66.5607 3.48752 48.4615 3.48752C30.5212 3.48752 13.8526 8.91256 0 18.2126V14.0869Z" fill="white"/>
</svg>
