<svg width="18" height="19" viewBox="0 0 18 19" fill="none" xmlns="http://www.w3.org/2000/svg">
<path d="M9.54883 10.4551V17.8379C9.54883 18.1895 9.47852 18.4414 9.33789 18.5938C9.19727 18.7461 9.01562 18.8223 8.79297 18.8223C8.58203 18.8223 8.40625 18.7461 8.26562 18.5938C8.125 18.4414 8.05469 18.1895 8.05469 17.8379V10.4551H1.51562C1.16406 10.4551 0.912109 10.3906 0.759766 10.2617C0.607422 10.1211 0.53125 9.93945 0.53125 9.7168C0.53125 9.49414 0.607422 9.31836 0.759766 9.18945C0.912109 9.04883 1.16406 8.97852 1.51562 8.97852H8.05469V1.63086C8.05469 1.2793 8.125 1.02734 8.26562 0.875C8.40625 0.722656 8.58789 0.646484 8.81055 0.646484C9.02148 0.646484 9.19727 0.722656 9.33789 0.875C9.47852 1.02734 9.54883 1.2793 9.54883 1.63086V8.97852H16.0879C16.4395 8.97852 16.6914 9.04883 16.8438 9.18945C16.9961 9.31836 17.0723 9.49414 17.0723 9.7168C17.0723 9.93945 16.9961 10.1211 16.8438 10.2617C16.6914 10.3906 16.4395 10.4551 16.0879 10.4551H9.54883Z" fill="black"/>
</svg>
