<svg width="22" height="22" viewBox="0 0 22 22" fill="none" xmlns="http://www.w3.org/2000/svg">
<path d="M11 0.000976562C4.9255 0.000976562 0 4.92551 0 11.0005C0 17.0755 4.92502 22 11 22C17.0755 22 22 17.0755 22 11.0005C22 4.92551 17.0755 0.000976562 11 0.000976562ZM11 3.28996C13.01 3.28996 14.6388 4.91923 14.6388 6.92828C14.6388 8.93781 13.01 10.5666 11 10.5666C8.99095 10.5666 7.36216 8.93781 7.36216 6.92828C7.36216 4.91923 8.99095 3.28996 11 3.28996ZM10.9976 19.1241C8.99288 19.1241 7.15681 18.3941 5.74062 17.1856C5.39563 16.8914 5.19656 16.4599 5.19656 16.0072C5.19656 13.9696 6.84565 12.3389 8.88369 12.3389H13.1173C15.1558 12.3389 16.7986 13.9696 16.7986 16.0072C16.7986 16.4604 16.6005 16.8909 16.255 17.1852C14.8393 18.3941 13.0028 19.1241 10.9976 19.1241Z" fill="white"/>
</svg>
