<svg width="22" height="22" viewBox="0 0 22 22" fill="none" xmlns="http://www.w3.org/2000/svg">
<path d="M10.9998 0C5.2618 0 0.555805 4.394 0.0498047 10H8.9998V7C8.9998 6.596 9.2438 6.231 9.6168 6.076C9.9908 5.921 10.4208 6.007 10.7068 6.293L14.7068 10.293C15.0978 10.684 15.0978 11.316 14.7068 11.707L10.7068 15.707C10.4208 15.993 9.9908 16.079 9.6168 15.924C9.2438 15.769 8.9998 15.404 8.9998 15V12H0.0498047C0.555805 17.606 5.2618 22 10.9998 22C17.0748 22 21.9998 17.075 21.9998 11C21.9998 4.925 17.0748 0 10.9998 0Z" fill="white"/>
</svg>
